# Blender v2.78 (sub 0) OBJ File: 'flowerpot.blend'
# www.blender.org
mtllib flowerpot.mtl
o Cube
v 0.187500 -0.437500 -0.187500
v 0.187500 -0.437500 0.187500
v -0.187500 -0.437500 0.187500
v -0.187500 -0.437500 -0.187500
v 0.187500 -0.125000 -0.187500
v 0.187500 -0.125000 0.187500
v -0.187500 -0.125000 0.187500
v -0.187500 -0.125000 -0.187500
v -0.125000 -0.125000 -0.125000
v 0.125000 -0.125000 0.125000
v 0.125000 -0.125000 -0.125000
v -0.125000 -0.125000 -0.125000
v 0.187500 -0.125000 0.125000
v 0.125000 -0.187500 -0.125000
v 0.125000 -0.187500 0.125000
v -0.187500 -0.125000 -0.125000
v 0.187500 -0.125000 -0.125000
v -0.125000 -0.187500 -0.125000
v -0.125000 -0.187500 0.125000
v -0.187500 -0.125000 0.125000
v 0.125000 -0.125000 0.125000
v -0.125000 -0.125000 -0.125000
v -0.125000 -0.125000 0.125000
v -0.125000 -0.125000 -0.125000
v 0.125000 -0.125000 -0.125000
v 0.125000 -0.125000 0.125000
v -0.125000 -0.125000 0.125000
v -0.125000 -0.125000 0.125000
v 0.125000 -0.125000 -0.125000
v 0.125000 -0.125000 0.125000
v 0.125000 -0.125000 -0.125000
v -0.125000 -0.125000 0.125000
v -0.224794 -0.187500 -0.217081
v -0.224794 0.437500 -0.217081
v 0.224794 -0.187500 0.217081
v 0.224794 0.437500 0.217081
v -0.217081 -0.187500 0.224794
v -0.217081 0.437500 0.224794
v 0.217081 -0.187500 -0.224794
v 0.217081 0.437500 -0.224794
v -0.125000 -0.500000 0.125000
v -0.125000 -0.500000 -0.125000
v 0.187500 -0.437500 0.125000
v 0.125000 -0.500000 -0.125000
v -0.187500 -0.437500 -0.125000
v 0.187500 -0.437500 -0.125000
v 0.125000 -0.500000 0.125000
v -0.187500 -0.437500 0.125000
v 0.125000 -0.437500 0.125000
v 0.125000 -0.437500 -0.125000
v -0.125000 -0.437500 -0.125000
v -0.125000 -0.437500 0.125000
vt 0.6250 0.5000
vt 0.6250 0.7500
vt 0.3750 0.7500
vt 0.3750 0.5000
vt 1.0000 0.5625
vt 1.0000 0.8750
vt 0.9375 0.8750
vt 0.6875 0.8750
vt 0.6250 0.8750
vt 0.6250 0.5625
vt 0.6875 0.5625
vt 0.9375 0.5625
vt 0.3750 0.9375
vt 0.0000 0.9375
vt 0.0000 0.8750
vt 0.3750 0.8750
vt 0.9375 0.9375
vt 0.6875 0.9375
vt 0.6875 0.8750
vt 0.9375 0.8750
vt 0.9375 0.9375
vt 0.3125 0.9375
vt 0.0625 0.9375
vt -0.0000 0.9375
vt -0.0000 0.8750
vt 0.3750 0.8750
vt 0.3750 0.9375
vt 0.0000 0.5625
vt 0.3750 0.5625
vt 0.3125 1.0000
vt 0.0625 1.0000
vt 0.9375 0.9375
vt 0.6875 0.9375
vt 0.6875 0.9375
vt 0.9375 0.9375
vt 1.0000 0.5625
vt 1.0000 0.8750
vt 0.6250 0.8750
vt 0.6250 0.5625
vt 0.6875 0.5625
vt 0.9375 0.5625
vt 0.3750 0.5625
vt 0.0000 0.5625
vt 0.0625 0.9375
vt 0.3125 0.9375
vt 0.3125 1.0000
vt 0.0625 1.0000
vt 0.9375 1.0000
vt 0.6875 1.0000
vt 0.9375 1.0000
vt 0.6875 1.0000
vt 0.0000 0.5000
vt 0.0625 0.5000
vt 0.3125 0.5000
vt 0.3750 0.5000
vt 0.3125 0.5000
vt 0.0625 0.5000
vt 0.0625 0.4375
vt 0.3125 0.4375
vt 0.3750 0.5000
vt 0.0000 0.5000
vt 0.6875 0.5000
vt 0.9375 0.5000
vt 0.6875 0.5000
vt 0.9375 0.5000
vt 0.3750 1.0000
vt 0.3750 0.7500
vt 0.6250 0.7500
vt 0.6250 1.0000
vt 0.6875 0.4375
vt 0.9375 0.4375
vt 0.0625 0.4375
vt 0.3125 0.4375
vt 0.6875 0.4375
vt 0.9375 0.4375
vt 0.9999 0.0001
vt 0.9999 0.9989
vt 0.0001 0.9989
vt 0.0001 0.0001
vt 0.9980 0.0020
vt 0.0020 0.0020
vt 0.0020 0.9983
vt 0.9980 0.9983
vn 0.0000 1.0000 0.0000
vn 1.0000 0.0000 0.0000
vn -0.0000 -0.0000 1.0000
vn -1.0000 -0.0000 -0.0000
vn 0.0000 0.0000 -1.0000
vn 0.0000 -1.0000 -0.0000
vn 0.6947 0.0000 -0.7193
vn 0.7193 -0.0000 0.6947
g Cube_Cube_pot
usemtl pot
s off
f 18/1/1 19/2/1 15/3/1 14/4/1
f 1/5/2 5/6/2 17/7/2 13/8/2 6/9/2 2/10/2 43/11/2 46/12/2
f 13/13/1 20/14/1 7/15/1 6/16/1
f 32/17/1 24/18/1 16/19/1 20/20/1 27/21/1
f 24/22/1 29/23/1 17/24/1 5/25/1 8/26/1 16/27/1
f 3/28/3 2/29/3 6/16/3 7/15/3
f 29/23/3 24/22/3 18/30/3 14/31/3
f 29/32/1 30/33/1 26/34/1 13/8/1 17/7/1 25/35/1
f 3/36/4 7/37/4 20/20/4 16/19/4 8/38/4 4/39/4 45/40/4 48/41/4
f 4/42/5 8/26/5 5/25/5 1/43/5
f 32/44/5 30/45/5 15/46/5 19/47/5
f 30/33/4 29/32/4 14/48/4 15/49/4
f 24/18/2 32/17/2 19/50/2 18/51/2
f 2/29/6 3/28/6 48/52/6 52/53/6 49/54/6 43/55/6
f 51/56/5 50/57/5 44/58/5 42/59/5
f 50/57/6 51/56/6 45/60/6 4/42/6 1/43/6 46/61/6
f 51/62/6 52/63/6 48/41/6 45/40/6
f 46/12/6 43/11/6 49/64/6 50/65/6
f 42/66/6 44/67/6 47/68/6 41/69/6
f 50/65/2 49/64/2 47/70/2 44/71/2
f 49/54/3 52/53/3 41/72/3 47/73/3
f 52/63/4 51/62/4 42/74/4 41/75/4
g Cube_Cube_plant
usemtl plant
f 33/76/7 34/77/7 36/78/7 35/79/7
f 37/80/8 39/81/8 40/82/8 38/83/8
l 28 23
l 22 9
l 11 31
l 19 28
l 14 11
l 18 22
l 10 21
l 24 12
l 15 10
